M48
;GenerationSoftware,Autodesk,EAGLE,9.1.0*%
;CreationDate,2018-10-24T11:54:06Z*%
FMAT,2
ICI,OFF
METRIC,TZ,000.000
T8C0.300
T7C0.350
T6C0.900
T5C1.000
T4C1.016
T3C1.300
T2C3.000
%
G90
M71
T2
X3500Y3500
X61500Y3500
X61500Y52500
T3
X4420Y38079
X4420Y17759
X4420Y12679
X4420Y27919
X4420Y22839
X4420Y32999
T4
X52705Y27305
X55181Y12509
X57721Y12509
X60261Y12509
X62801Y12509
X52705Y24765
T5
X41910Y10478
X41910Y14287
T6
X49010Y51230
X49010Y53770
X56630Y53770
X56630Y51230
X54090Y53770
X21590Y6985
X54090Y51230
X51550Y53770
X51550Y51230
X10160Y6985
X10160Y4445
X10160Y1905
X12700Y6985
X12700Y4445
X12700Y1905
X15240Y6985
X15240Y4445
X15240Y1905
X17780Y6985
X17780Y4445
X17780Y1905
X15990Y51230
X31230Y51230
X8370Y53770
X15990Y53770
X18530Y51230
X18530Y53770
X21070Y51230
X21070Y53770
X23610Y51230
X23610Y53770
X26150Y51230
X26150Y53770
X28690Y51230
X28690Y53770
X46470Y53770
X31230Y53770
X33770Y51230
X33770Y53770
X36310Y51230
X36310Y53770
X38850Y51230
X38850Y53770
X41390Y51230
X41390Y53770
X43930Y51230
X43930Y53770
X46470Y51230
X27940Y47625
X52705Y4445
X52705Y1905
X55245Y6985
X55245Y4445
X55245Y1905
X5080Y47625
X7620Y47625
X10160Y47625
X12700Y47625
X15240Y47625
X17780Y47625
X20320Y47625
X22860Y47625
X25400Y47625
X52705Y6985
X30480Y47625
X33020Y47625
X35560Y47625
X38100Y47625
X40640Y47625
X43180Y47625
X45720Y47625
X48260Y47625
X50800Y47625
X53340Y47625
X55880Y47625
X58420Y47625
X60960Y47625
X63500Y47625
X35560Y4445
X21590Y1905
X24130Y6985
X24130Y4445
X24130Y1905
X26670Y6985
X26670Y4445
X26670Y1905
X29210Y6985
X29210Y4445
X29210Y1905
X33020Y6985
X33020Y4445
X33020Y1905
X35560Y6985
X21590Y4445
X35560Y1905
X38100Y6985
X38100Y4445
X38100Y1905
X40640Y6985
X40640Y4445
X40640Y1905
X47625Y6985
X47625Y4445
X47625Y1905
X50165Y6985
X50165Y4445
X50165Y1905
X13450Y51230
X10910Y53770
X10910Y51230
X13450Y53770
X8370Y51230
T7
X44132Y40323
X40958Y40323
X44132Y41910
X42545Y33655
X42545Y35243
X42545Y36830
X42545Y38735
X42545Y40323
X42545Y41910
X40958Y33655
X40958Y35243
X40958Y36830
X40958Y38735
X47307Y36830
X44132Y38735
X44132Y36830
X44132Y35243
X44132Y33655
X45720Y41910
X45720Y40323
X45720Y38735
X45720Y36830
X45720Y35243
X45720Y33655
X47307Y41910
X47307Y40323
X47307Y38735
X26670Y11112
X39370Y38735
X43180Y1905
X12382Y13017
X29210Y17145
X31115Y1905
X19685Y1905
X8255Y1905
X23495Y34290
X16510Y27305
X29845Y38735
X38735Y20320
X53340Y44132
X39370Y41910
X39370Y40323
X40958Y41910
X39370Y36830
X39370Y35243
X39370Y33655
X41275Y26352
X48260Y26352
X22225Y42545
X27305Y23495
X10160Y19685
X62865Y8890
X53975Y16510
X56515Y22860
X62865Y22860
X55880Y28575
X27940Y28575
X33655Y11112
X47307Y35243
X37783Y26035
X37783Y31432
X24765Y38100
X23495Y38100
X22225Y38100
X26670Y28575
X18415Y23495
X17145Y23495
X19685Y23495
X25400Y27940
X30162Y11112
X13970Y35878
X13970Y40005
X29845Y31115
X24765Y31115
X12700Y35878
X12700Y40005
X29151Y30384
X23495Y30480
X62230Y46355
X59055Y46355
X53025Y34290
X1905Y53975
X6667Y33020
X47307Y33655
X26987Y36830
X27940Y36830
X28892Y36830
X15875Y30797
X45085Y26352
X4445Y25082
X2223Y22860
X6667Y22860
X4445Y20638
X4445Y35243
X63500Y33655
X16510Y19685
X34290Y46037
X16510Y46355
X10478Y43815
X1905Y41275
X9525Y15557
X21907Y19685
X4445Y30797
X2223Y12700
X4445Y10478
X6667Y12700
X4445Y14605
X2223Y33020
T8
X34290Y21590
X26035Y45085
X33020Y22225
X35560Y21590
M30