G04 EAGLE Gerber X2 export*
%TF.Part,Single*%
%TF.FileFunction,Profile,NP*%
%TF.FilePolarity,Positive*%
%TF.GenerationSoftware,Autodesk,EAGLE,9.1.0*%
%TF.CreationDate,2018-10-24T11:49:30Z*%
G75*
%MOMM*%
%FSLAX34Y34*%
%LPD*%
%AMOC8*
5,1,8,0,0,1.08239X$1,22.5*%
G01*
%ADD10C,0.254000*%


D10*
X0Y30000D02*
X114Y27385D01*
X456Y24791D01*
X1022Y22235D01*
X1809Y19739D01*
X2811Y17321D01*
X4019Y15000D01*
X5425Y12793D01*
X7019Y10716D01*
X8787Y8787D01*
X10716Y7019D01*
X12793Y5425D01*
X15000Y4019D01*
X17321Y2811D01*
X19739Y1809D01*
X22235Y1022D01*
X24791Y456D01*
X27385Y114D01*
X30000Y0D01*
X620000Y0D01*
X622615Y114D01*
X625209Y456D01*
X627765Y1022D01*
X630261Y1809D01*
X632679Y2811D01*
X635000Y4019D01*
X637207Y5425D01*
X639284Y7019D01*
X641213Y8787D01*
X642981Y10716D01*
X644575Y12793D01*
X645981Y15000D01*
X647189Y17321D01*
X648191Y19739D01*
X648978Y22235D01*
X649544Y24791D01*
X649886Y27385D01*
X650000Y30000D01*
X650000Y530000D01*
X649886Y532615D01*
X649544Y535209D01*
X648978Y537765D01*
X648191Y540261D01*
X647189Y542679D01*
X645981Y545000D01*
X644575Y547207D01*
X642981Y549284D01*
X641213Y551213D01*
X639284Y552981D01*
X637207Y554575D01*
X635000Y555981D01*
X632679Y557189D01*
X630261Y558191D01*
X627765Y558978D01*
X625209Y559544D01*
X622615Y559886D01*
X620000Y560000D01*
X30000Y560000D01*
X27385Y559886D01*
X24791Y559544D01*
X22235Y558978D01*
X19739Y558191D01*
X17321Y557189D01*
X15000Y555981D01*
X12793Y554575D01*
X10716Y552981D01*
X8787Y551213D01*
X7019Y549284D01*
X5425Y547207D01*
X4019Y545000D01*
X2811Y542679D01*
X1809Y540261D01*
X1022Y537765D01*
X456Y535209D01*
X114Y532615D01*
X0Y530000D01*
X0Y30000D01*
X440000Y40000D02*
X440038Y39128D01*
X440152Y38264D01*
X440341Y37412D01*
X440603Y36580D01*
X440937Y35774D01*
X441340Y35000D01*
X441808Y34264D01*
X442340Y33572D01*
X442929Y32929D01*
X443572Y32340D01*
X444264Y31808D01*
X445000Y31340D01*
X445774Y30937D01*
X446580Y30603D01*
X447412Y30341D01*
X448264Y30152D01*
X449128Y30038D01*
X450000Y30000D01*
X450872Y30038D01*
X451736Y30152D01*
X452588Y30341D01*
X453420Y30603D01*
X454226Y30937D01*
X455000Y31340D01*
X455736Y31808D01*
X456428Y32340D01*
X457071Y32929D01*
X457660Y33572D01*
X458192Y34264D01*
X458660Y35000D01*
X459063Y35774D01*
X459397Y36580D01*
X459659Y37412D01*
X459848Y38264D01*
X459962Y39128D01*
X460000Y40000D01*
X460000Y190000D01*
X459962Y190872D01*
X459848Y191736D01*
X459659Y192588D01*
X459397Y193420D01*
X459063Y194226D01*
X458660Y195000D01*
X458192Y195736D01*
X457660Y196428D01*
X457071Y197071D01*
X456428Y197660D01*
X455736Y198192D01*
X455000Y198660D01*
X454226Y199063D01*
X453420Y199397D01*
X452588Y199659D01*
X451736Y199848D01*
X450872Y199962D01*
X450000Y200000D01*
X449128Y199962D01*
X448264Y199848D01*
X447412Y199659D01*
X446580Y199397D01*
X445774Y199063D01*
X445000Y198660D01*
X444264Y198192D01*
X443572Y197660D01*
X442929Y197071D01*
X442340Y196428D01*
X441808Y195736D01*
X441340Y195000D01*
X440937Y194226D01*
X440603Y193420D01*
X440341Y192588D01*
X440152Y191736D01*
X440038Y190872D01*
X440000Y190000D01*
X440000Y40000D01*
X50000Y34464D02*
X49924Y33396D01*
X49771Y32335D01*
X49543Y31288D01*
X49241Y30260D01*
X48867Y29256D01*
X48422Y28281D01*
X47908Y27341D01*
X47329Y26440D01*
X46687Y25582D01*
X45985Y24772D01*
X45228Y24015D01*
X44418Y23313D01*
X43560Y22671D01*
X42659Y22092D01*
X41719Y21578D01*
X40744Y21133D01*
X39740Y20759D01*
X38712Y20457D01*
X37665Y20229D01*
X36604Y20076D01*
X35536Y20000D01*
X34464Y20000D01*
X33396Y20076D01*
X32335Y20229D01*
X31288Y20457D01*
X30260Y20759D01*
X29256Y21133D01*
X28281Y21578D01*
X27341Y22092D01*
X26440Y22671D01*
X25582Y23313D01*
X24772Y24015D01*
X24015Y24772D01*
X23313Y25582D01*
X22671Y26440D01*
X22092Y27341D01*
X21578Y28281D01*
X21133Y29256D01*
X20759Y30260D01*
X20457Y31288D01*
X20229Y32335D01*
X20076Y33396D01*
X20000Y34464D01*
X20000Y35536D01*
X20076Y36604D01*
X20229Y37665D01*
X20457Y38712D01*
X20759Y39740D01*
X21133Y40744D01*
X21578Y41719D01*
X22092Y42659D01*
X22671Y43560D01*
X23313Y44418D01*
X24015Y45228D01*
X24772Y45985D01*
X25582Y46687D01*
X26440Y47329D01*
X27341Y47908D01*
X28281Y48422D01*
X29256Y48867D01*
X30260Y49241D01*
X31288Y49543D01*
X32335Y49771D01*
X33396Y49924D01*
X34464Y50000D01*
X35536Y50000D01*
X36604Y49924D01*
X37665Y49771D01*
X38712Y49543D01*
X39740Y49241D01*
X40744Y48867D01*
X41719Y48422D01*
X42659Y47908D01*
X43560Y47329D01*
X44418Y46687D01*
X45228Y45985D01*
X45985Y45228D01*
X46687Y44418D01*
X47329Y43560D01*
X47908Y42659D01*
X48422Y41719D01*
X48867Y40744D01*
X49241Y39740D01*
X49543Y38712D01*
X49771Y37665D01*
X49924Y36604D01*
X50000Y35536D01*
X50000Y34464D01*
X630000Y34464D02*
X629924Y33396D01*
X629771Y32335D01*
X629543Y31288D01*
X629241Y30260D01*
X628867Y29256D01*
X628422Y28281D01*
X627908Y27341D01*
X627329Y26440D01*
X626687Y25582D01*
X625985Y24772D01*
X625228Y24015D01*
X624418Y23313D01*
X623560Y22671D01*
X622659Y22092D01*
X621719Y21578D01*
X620744Y21133D01*
X619740Y20759D01*
X618712Y20457D01*
X617665Y20229D01*
X616604Y20076D01*
X615536Y20000D01*
X614464Y20000D01*
X613396Y20076D01*
X612335Y20229D01*
X611288Y20457D01*
X610260Y20759D01*
X609256Y21133D01*
X608281Y21578D01*
X607341Y22092D01*
X606440Y22671D01*
X605582Y23313D01*
X604772Y24015D01*
X604015Y24772D01*
X603313Y25582D01*
X602671Y26440D01*
X602092Y27341D01*
X601578Y28281D01*
X601133Y29256D01*
X600759Y30260D01*
X600457Y31288D01*
X600229Y32335D01*
X600076Y33396D01*
X600000Y34464D01*
X600000Y35536D01*
X600076Y36604D01*
X600229Y37665D01*
X600457Y38712D01*
X600759Y39740D01*
X601133Y40744D01*
X601578Y41719D01*
X602092Y42659D01*
X602671Y43560D01*
X603313Y44418D01*
X604015Y45228D01*
X604772Y45985D01*
X605582Y46687D01*
X606440Y47329D01*
X607341Y47908D01*
X608281Y48422D01*
X609256Y48867D01*
X610260Y49241D01*
X611288Y49543D01*
X612335Y49771D01*
X613396Y49924D01*
X614464Y50000D01*
X615536Y50000D01*
X616604Y49924D01*
X617665Y49771D01*
X618712Y49543D01*
X619740Y49241D01*
X620744Y48867D01*
X621719Y48422D01*
X622659Y47908D01*
X623560Y47329D01*
X624418Y46687D01*
X625228Y45985D01*
X625985Y45228D01*
X626687Y44418D01*
X627329Y43560D01*
X627908Y42659D01*
X628422Y41719D01*
X628867Y40744D01*
X629241Y39740D01*
X629543Y38712D01*
X629771Y37665D01*
X629924Y36604D01*
X630000Y35536D01*
X630000Y34464D01*
X630000Y524464D02*
X629924Y523396D01*
X629771Y522335D01*
X629543Y521288D01*
X629241Y520260D01*
X628867Y519256D01*
X628422Y518281D01*
X627908Y517341D01*
X627329Y516440D01*
X626687Y515582D01*
X625985Y514772D01*
X625228Y514015D01*
X624418Y513313D01*
X623560Y512671D01*
X622659Y512092D01*
X621719Y511578D01*
X620744Y511133D01*
X619740Y510759D01*
X618712Y510457D01*
X617665Y510229D01*
X616604Y510076D01*
X615536Y510000D01*
X614464Y510000D01*
X613396Y510076D01*
X612335Y510229D01*
X611288Y510457D01*
X610260Y510759D01*
X609256Y511133D01*
X608281Y511578D01*
X607341Y512092D01*
X606440Y512671D01*
X605582Y513313D01*
X604772Y514015D01*
X604015Y514772D01*
X603313Y515582D01*
X602671Y516440D01*
X602092Y517341D01*
X601578Y518281D01*
X601133Y519256D01*
X600759Y520260D01*
X600457Y521288D01*
X600229Y522335D01*
X600076Y523396D01*
X600000Y524464D01*
X600000Y525536D01*
X600076Y526604D01*
X600229Y527665D01*
X600457Y528712D01*
X600759Y529740D01*
X601133Y530744D01*
X601578Y531719D01*
X602092Y532659D01*
X602671Y533560D01*
X603313Y534418D01*
X604015Y535228D01*
X604772Y535985D01*
X605582Y536687D01*
X606440Y537329D01*
X607341Y537908D01*
X608281Y538422D01*
X609256Y538867D01*
X610260Y539241D01*
X611288Y539543D01*
X612335Y539771D01*
X613396Y539924D01*
X614464Y540000D01*
X615536Y540000D01*
X616604Y539924D01*
X617665Y539771D01*
X618712Y539543D01*
X619740Y539241D01*
X620744Y538867D01*
X621719Y538422D01*
X622659Y537908D01*
X623560Y537329D01*
X624418Y536687D01*
X625228Y535985D01*
X625985Y535228D01*
X626687Y534418D01*
X627329Y533560D01*
X627908Y532659D01*
X628422Y531719D01*
X628867Y530744D01*
X629241Y529740D01*
X629543Y528712D01*
X629771Y527665D01*
X629924Y526604D01*
X630000Y525536D01*
X630000Y524464D01*
M02*
