G04 EAGLE Gerber X2 export*
%TF.Part,Single*%
%TF.FileFunction,Legend,Bot,1*%
%TF.FilePolarity,Positive*%
%TF.GenerationSoftware,Autodesk,EAGLE,9.1.0*%
%TF.CreationDate,2018-10-24T11:49:30Z*%
G75*
%MOMM*%
%FSLAX34Y34*%
%LPD*%
%AMOC8*
5,1,8,0,0,1.08239X$1,22.5*%
G01*
%ADD10C,0.203200*%
%ADD11C,0.400000*%
%ADD12C,0.152400*%
%ADD13C,0.050800*%


D10*
X308284Y241541D02*
X310655Y241541D01*
X310750Y241543D01*
X310846Y241549D01*
X310941Y241558D01*
X311035Y241572D01*
X311129Y241589D01*
X311222Y241610D01*
X311315Y241635D01*
X311406Y241663D01*
X311496Y241695D01*
X311584Y241731D01*
X311671Y241770D01*
X311757Y241813D01*
X311841Y241859D01*
X311922Y241908D01*
X312002Y241961D01*
X312079Y242017D01*
X312155Y242075D01*
X312227Y242137D01*
X312297Y242202D01*
X312365Y242270D01*
X312430Y242340D01*
X312492Y242412D01*
X312550Y242488D01*
X312606Y242565D01*
X312659Y242645D01*
X312708Y242727D01*
X312754Y242810D01*
X312797Y242896D01*
X312836Y242983D01*
X312872Y243071D01*
X312904Y243161D01*
X312932Y243252D01*
X312957Y243345D01*
X312978Y243438D01*
X312995Y243532D01*
X313009Y243626D01*
X313018Y243721D01*
X313024Y243817D01*
X313026Y243912D01*
X313026Y249838D01*
X313024Y249933D01*
X313018Y250029D01*
X313009Y250124D01*
X312995Y250218D01*
X312978Y250312D01*
X312957Y250405D01*
X312932Y250498D01*
X312904Y250589D01*
X312872Y250679D01*
X312836Y250767D01*
X312797Y250854D01*
X312754Y250940D01*
X312708Y251023D01*
X312659Y251105D01*
X312606Y251185D01*
X312550Y251262D01*
X312492Y251338D01*
X312430Y251410D01*
X312365Y251480D01*
X312297Y251548D01*
X312227Y251613D01*
X312155Y251675D01*
X312079Y251733D01*
X312002Y251789D01*
X311922Y251842D01*
X311841Y251891D01*
X311757Y251937D01*
X311671Y251980D01*
X311584Y252019D01*
X311496Y252055D01*
X311406Y252087D01*
X311315Y252115D01*
X311222Y252140D01*
X311129Y252161D01*
X311035Y252178D01*
X310941Y252192D01*
X310846Y252201D01*
X310751Y252207D01*
X310655Y252209D01*
X308284Y252209D01*
X301080Y252209D02*
X303451Y243912D01*
X297524Y243912D01*
X299302Y246282D02*
X299302Y241541D01*
X571900Y342950D02*
X571900Y380950D01*
X621900Y380950D02*
X621900Y342950D01*
D11*
X623400Y326950D03*
D10*
X632220Y352017D02*
X639925Y352017D01*
X632220Y352018D02*
X632113Y352020D01*
X632006Y352026D01*
X631900Y352035D01*
X631794Y352049D01*
X631688Y352066D01*
X631583Y352087D01*
X631479Y352112D01*
X631376Y352141D01*
X631274Y352173D01*
X631173Y352209D01*
X631074Y352249D01*
X630976Y352292D01*
X630880Y352339D01*
X630785Y352389D01*
X630692Y352442D01*
X630602Y352499D01*
X630513Y352559D01*
X630427Y352622D01*
X630343Y352688D01*
X630261Y352758D01*
X630182Y352830D01*
X630106Y352905D01*
X630032Y352983D01*
X629962Y353063D01*
X629894Y353146D01*
X629829Y353231D01*
X629768Y353318D01*
X629709Y353408D01*
X629654Y353500D01*
X629602Y353593D01*
X629554Y353689D01*
X629509Y353786D01*
X629467Y353884D01*
X629430Y353984D01*
X629395Y354086D01*
X629365Y354188D01*
X629338Y354292D01*
X629315Y354396D01*
X629296Y354502D01*
X629281Y354608D01*
X629269Y354714D01*
X629261Y354821D01*
X629257Y354928D01*
X629257Y355034D01*
X629261Y355141D01*
X629269Y355248D01*
X629281Y355354D01*
X629296Y355460D01*
X629315Y355566D01*
X629338Y355670D01*
X629365Y355774D01*
X629395Y355876D01*
X629430Y355978D01*
X629467Y356078D01*
X629509Y356176D01*
X629554Y356273D01*
X629602Y356369D01*
X629654Y356463D01*
X629709Y356554D01*
X629768Y356644D01*
X629829Y356731D01*
X629894Y356816D01*
X629962Y356899D01*
X630032Y356979D01*
X630106Y357057D01*
X630182Y357132D01*
X630261Y357204D01*
X630343Y357274D01*
X630427Y357340D01*
X630513Y357403D01*
X630602Y357463D01*
X630692Y357520D01*
X630785Y357573D01*
X630880Y357623D01*
X630976Y357670D01*
X631074Y357713D01*
X631173Y357753D01*
X631274Y357789D01*
X631376Y357821D01*
X631479Y357850D01*
X631583Y357875D01*
X631688Y357896D01*
X631794Y357913D01*
X631900Y357927D01*
X632006Y357936D01*
X632113Y357942D01*
X632220Y357944D01*
X639925Y357944D01*
X639925Y366199D02*
X631628Y363828D01*
X631628Y369755D01*
X633998Y367977D02*
X629257Y367977D01*
X516509Y359677D02*
X505841Y359677D01*
X516509Y359677D02*
X516509Y362640D01*
X516507Y362747D01*
X516501Y362854D01*
X516492Y362960D01*
X516478Y363066D01*
X516461Y363172D01*
X516440Y363277D01*
X516415Y363381D01*
X516386Y363484D01*
X516354Y363586D01*
X516318Y363687D01*
X516278Y363786D01*
X516235Y363884D01*
X516188Y363980D01*
X516138Y364075D01*
X516085Y364168D01*
X516028Y364258D01*
X515968Y364347D01*
X515905Y364433D01*
X515839Y364517D01*
X515769Y364599D01*
X515697Y364678D01*
X515622Y364754D01*
X515544Y364828D01*
X515464Y364898D01*
X515381Y364966D01*
X515296Y365031D01*
X515209Y365092D01*
X515119Y365151D01*
X515028Y365206D01*
X514934Y365258D01*
X514838Y365306D01*
X514741Y365351D01*
X514643Y365393D01*
X514543Y365430D01*
X514441Y365465D01*
X514339Y365495D01*
X514235Y365522D01*
X514131Y365545D01*
X514025Y365564D01*
X513919Y365579D01*
X513813Y365591D01*
X513706Y365599D01*
X513599Y365603D01*
X513493Y365603D01*
X513386Y365599D01*
X513279Y365591D01*
X513173Y365579D01*
X513067Y365564D01*
X512961Y365545D01*
X512857Y365522D01*
X512753Y365495D01*
X512651Y365465D01*
X512549Y365430D01*
X512449Y365393D01*
X512351Y365351D01*
X512254Y365306D01*
X512158Y365258D01*
X512065Y365206D01*
X511973Y365151D01*
X511883Y365092D01*
X511796Y365031D01*
X511711Y364966D01*
X511628Y364898D01*
X511548Y364828D01*
X511470Y364754D01*
X511395Y364678D01*
X511323Y364599D01*
X511253Y364517D01*
X511187Y364433D01*
X511124Y364347D01*
X511064Y364258D01*
X511007Y364168D01*
X510954Y364075D01*
X510904Y363980D01*
X510857Y363884D01*
X510814Y363786D01*
X510774Y363687D01*
X510738Y363586D01*
X510706Y363484D01*
X510677Y363381D01*
X510652Y363277D01*
X510631Y363172D01*
X510614Y363066D01*
X510600Y362960D01*
X510591Y362854D01*
X510585Y362747D01*
X510583Y362640D01*
X510582Y362640D02*
X510582Y359677D01*
X510582Y363233D02*
X505841Y365604D01*
X516509Y374256D02*
X516507Y374358D01*
X516501Y374460D01*
X516491Y374562D01*
X516478Y374663D01*
X516460Y374764D01*
X516439Y374864D01*
X516414Y374963D01*
X516385Y375061D01*
X516352Y375158D01*
X516316Y375253D01*
X516276Y375347D01*
X516232Y375439D01*
X516185Y375530D01*
X516134Y375619D01*
X516081Y375706D01*
X516023Y375790D01*
X515963Y375873D01*
X515900Y375953D01*
X515833Y376030D01*
X515764Y376105D01*
X515691Y376178D01*
X515616Y376247D01*
X515539Y376314D01*
X515459Y376377D01*
X515376Y376437D01*
X515292Y376495D01*
X515205Y376548D01*
X515116Y376599D01*
X515025Y376646D01*
X514933Y376690D01*
X514839Y376730D01*
X514743Y376766D01*
X514647Y376799D01*
X514549Y376828D01*
X514450Y376853D01*
X514350Y376874D01*
X514249Y376892D01*
X514148Y376905D01*
X514046Y376915D01*
X513944Y376921D01*
X513842Y376923D01*
X516509Y374256D02*
X516507Y374140D01*
X516501Y374023D01*
X516491Y373907D01*
X516477Y373792D01*
X516460Y373677D01*
X516438Y373562D01*
X516412Y373449D01*
X516383Y373336D01*
X516350Y373224D01*
X516313Y373114D01*
X516272Y373005D01*
X516228Y372897D01*
X516180Y372791D01*
X516128Y372687D01*
X516073Y372584D01*
X516015Y372483D01*
X515953Y372385D01*
X515888Y372288D01*
X515819Y372194D01*
X515747Y372102D01*
X515673Y372013D01*
X515595Y371926D01*
X515514Y371842D01*
X515431Y371761D01*
X515345Y371683D01*
X515256Y371607D01*
X515165Y371535D01*
X515071Y371466D01*
X514975Y371400D01*
X514877Y371337D01*
X514777Y371278D01*
X514675Y371222D01*
X514571Y371170D01*
X514465Y371121D01*
X514357Y371076D01*
X514249Y371034D01*
X514139Y370997D01*
X511767Y376035D02*
X511841Y376110D01*
X511918Y376182D01*
X511998Y376251D01*
X512080Y376318D01*
X512164Y376381D01*
X512251Y376441D01*
X512339Y376498D01*
X512430Y376552D01*
X512523Y376602D01*
X512617Y376649D01*
X512713Y376692D01*
X512811Y376732D01*
X512910Y376768D01*
X513010Y376801D01*
X513112Y376829D01*
X513214Y376854D01*
X513318Y376876D01*
X513422Y376893D01*
X513526Y376907D01*
X513631Y376916D01*
X513737Y376922D01*
X513842Y376924D01*
X511768Y376034D02*
X505841Y370996D01*
X505841Y376923D01*
X613791Y410477D02*
X624459Y410477D01*
X624459Y413440D01*
X624457Y413547D01*
X624451Y413654D01*
X624442Y413760D01*
X624428Y413866D01*
X624411Y413972D01*
X624390Y414077D01*
X624365Y414181D01*
X624336Y414284D01*
X624304Y414386D01*
X624268Y414487D01*
X624228Y414586D01*
X624185Y414684D01*
X624138Y414780D01*
X624088Y414875D01*
X624035Y414968D01*
X623978Y415058D01*
X623918Y415147D01*
X623855Y415233D01*
X623789Y415317D01*
X623719Y415399D01*
X623647Y415478D01*
X623572Y415554D01*
X623494Y415628D01*
X623414Y415698D01*
X623331Y415766D01*
X623246Y415831D01*
X623159Y415892D01*
X623069Y415951D01*
X622978Y416006D01*
X622884Y416058D01*
X622788Y416106D01*
X622691Y416151D01*
X622593Y416193D01*
X622493Y416230D01*
X622391Y416265D01*
X622289Y416295D01*
X622185Y416322D01*
X622081Y416345D01*
X621975Y416364D01*
X621869Y416379D01*
X621763Y416391D01*
X621656Y416399D01*
X621549Y416403D01*
X621443Y416403D01*
X621336Y416399D01*
X621229Y416391D01*
X621123Y416379D01*
X621017Y416364D01*
X620911Y416345D01*
X620807Y416322D01*
X620703Y416295D01*
X620601Y416265D01*
X620499Y416230D01*
X620399Y416193D01*
X620301Y416151D01*
X620204Y416106D01*
X620108Y416058D01*
X620015Y416006D01*
X619923Y415951D01*
X619833Y415892D01*
X619746Y415831D01*
X619661Y415766D01*
X619578Y415698D01*
X619498Y415628D01*
X619420Y415554D01*
X619345Y415478D01*
X619273Y415399D01*
X619203Y415317D01*
X619137Y415233D01*
X619074Y415147D01*
X619014Y415058D01*
X618957Y414968D01*
X618904Y414875D01*
X618854Y414780D01*
X618807Y414684D01*
X618764Y414586D01*
X618724Y414487D01*
X618688Y414386D01*
X618656Y414284D01*
X618627Y414181D01*
X618602Y414077D01*
X618581Y413972D01*
X618564Y413866D01*
X618550Y413760D01*
X618541Y413654D01*
X618535Y413547D01*
X618533Y413440D01*
X618532Y413440D02*
X618532Y410477D01*
X618532Y414033D02*
X613791Y416404D01*
X613791Y421796D02*
X613791Y424760D01*
X613793Y424867D01*
X613799Y424974D01*
X613808Y425080D01*
X613822Y425186D01*
X613839Y425292D01*
X613860Y425397D01*
X613885Y425501D01*
X613914Y425604D01*
X613946Y425706D01*
X613982Y425807D01*
X614022Y425906D01*
X614065Y426004D01*
X614112Y426100D01*
X614162Y426195D01*
X614215Y426288D01*
X614272Y426378D01*
X614332Y426467D01*
X614395Y426553D01*
X614461Y426637D01*
X614531Y426719D01*
X614603Y426798D01*
X614678Y426874D01*
X614756Y426948D01*
X614836Y427018D01*
X614919Y427086D01*
X615004Y427151D01*
X615091Y427212D01*
X615181Y427271D01*
X615273Y427326D01*
X615366Y427378D01*
X615462Y427426D01*
X615559Y427471D01*
X615657Y427513D01*
X615757Y427550D01*
X615859Y427585D01*
X615961Y427615D01*
X616065Y427642D01*
X616169Y427665D01*
X616275Y427684D01*
X616381Y427699D01*
X616487Y427711D01*
X616594Y427719D01*
X616701Y427723D01*
X616807Y427723D01*
X616914Y427719D01*
X617021Y427711D01*
X617127Y427699D01*
X617233Y427684D01*
X617339Y427665D01*
X617443Y427642D01*
X617547Y427615D01*
X617649Y427585D01*
X617751Y427550D01*
X617851Y427513D01*
X617949Y427471D01*
X618046Y427426D01*
X618142Y427378D01*
X618236Y427326D01*
X618327Y427271D01*
X618417Y427212D01*
X618504Y427151D01*
X618589Y427086D01*
X618672Y427018D01*
X618752Y426948D01*
X618830Y426874D01*
X618905Y426798D01*
X618977Y426719D01*
X619047Y426637D01*
X619113Y426553D01*
X619176Y426467D01*
X619236Y426378D01*
X619293Y426288D01*
X619346Y426195D01*
X619396Y426100D01*
X619443Y426004D01*
X619486Y425906D01*
X619526Y425807D01*
X619562Y425706D01*
X619594Y425604D01*
X619623Y425501D01*
X619648Y425397D01*
X619669Y425292D01*
X619686Y425186D01*
X619700Y425080D01*
X619709Y424974D01*
X619715Y424867D01*
X619717Y424760D01*
X624459Y425352D02*
X624459Y421796D01*
X624459Y425352D02*
X624457Y425449D01*
X624451Y425545D01*
X624441Y425641D01*
X624427Y425737D01*
X624410Y425832D01*
X624388Y425927D01*
X624363Y426020D01*
X624334Y426112D01*
X624301Y426203D01*
X624264Y426293D01*
X624224Y426381D01*
X624180Y426467D01*
X624133Y426551D01*
X624083Y426634D01*
X624029Y426714D01*
X623971Y426792D01*
X623911Y426868D01*
X623848Y426941D01*
X623782Y427011D01*
X623712Y427079D01*
X623641Y427144D01*
X623566Y427206D01*
X623489Y427264D01*
X623410Y427320D01*
X623329Y427372D01*
X623245Y427421D01*
X623160Y427467D01*
X623073Y427509D01*
X622984Y427547D01*
X622894Y427582D01*
X622802Y427613D01*
X622709Y427640D01*
X622616Y427664D01*
X622521Y427683D01*
X622425Y427699D01*
X622329Y427711D01*
X622233Y427719D01*
X622136Y427723D01*
X622040Y427723D01*
X621943Y427719D01*
X621847Y427711D01*
X621751Y427699D01*
X621655Y427683D01*
X621560Y427664D01*
X621467Y427640D01*
X621374Y427613D01*
X621282Y427582D01*
X621192Y427547D01*
X621103Y427509D01*
X621016Y427467D01*
X620931Y427421D01*
X620847Y427372D01*
X620766Y427320D01*
X620687Y427264D01*
X620610Y427206D01*
X620535Y427144D01*
X620464Y427079D01*
X620394Y427011D01*
X620328Y426941D01*
X620265Y426868D01*
X620205Y426792D01*
X620147Y426714D01*
X620093Y426634D01*
X620043Y426551D01*
X619996Y426467D01*
X619952Y426381D01*
X619912Y426293D01*
X619875Y426203D01*
X619842Y426112D01*
X619813Y426020D01*
X619788Y425927D01*
X619766Y425832D01*
X619749Y425737D01*
X619735Y425641D01*
X619725Y425545D01*
X619719Y425449D01*
X619717Y425352D01*
X619718Y425352D02*
X619718Y422982D01*
X626491Y435877D02*
X637159Y435877D01*
X637159Y438840D01*
X637157Y438947D01*
X637151Y439054D01*
X637142Y439160D01*
X637128Y439266D01*
X637111Y439372D01*
X637090Y439477D01*
X637065Y439581D01*
X637036Y439684D01*
X637004Y439786D01*
X636968Y439887D01*
X636928Y439986D01*
X636885Y440084D01*
X636838Y440180D01*
X636788Y440275D01*
X636735Y440368D01*
X636678Y440458D01*
X636618Y440547D01*
X636555Y440633D01*
X636489Y440717D01*
X636419Y440799D01*
X636347Y440878D01*
X636272Y440954D01*
X636194Y441028D01*
X636114Y441098D01*
X636031Y441166D01*
X635946Y441231D01*
X635859Y441292D01*
X635769Y441351D01*
X635678Y441406D01*
X635584Y441458D01*
X635488Y441506D01*
X635391Y441551D01*
X635293Y441593D01*
X635193Y441630D01*
X635091Y441665D01*
X634989Y441695D01*
X634885Y441722D01*
X634781Y441745D01*
X634675Y441764D01*
X634569Y441779D01*
X634463Y441791D01*
X634356Y441799D01*
X634249Y441803D01*
X634143Y441803D01*
X634036Y441799D01*
X633929Y441791D01*
X633823Y441779D01*
X633717Y441764D01*
X633611Y441745D01*
X633507Y441722D01*
X633403Y441695D01*
X633301Y441665D01*
X633199Y441630D01*
X633099Y441593D01*
X633001Y441551D01*
X632904Y441506D01*
X632808Y441458D01*
X632715Y441406D01*
X632623Y441351D01*
X632533Y441292D01*
X632446Y441231D01*
X632361Y441166D01*
X632278Y441098D01*
X632198Y441028D01*
X632120Y440954D01*
X632045Y440878D01*
X631973Y440799D01*
X631903Y440717D01*
X631837Y440633D01*
X631774Y440547D01*
X631714Y440458D01*
X631657Y440368D01*
X631604Y440275D01*
X631554Y440180D01*
X631507Y440084D01*
X631464Y439986D01*
X631424Y439887D01*
X631388Y439786D01*
X631356Y439684D01*
X631327Y439581D01*
X631302Y439477D01*
X631281Y439372D01*
X631264Y439266D01*
X631250Y439160D01*
X631241Y439054D01*
X631235Y438947D01*
X631233Y438840D01*
X631232Y438840D02*
X631232Y435877D01*
X631232Y439433D02*
X626491Y441804D01*
X628862Y447196D02*
X637159Y449567D01*
X628862Y447196D02*
X628862Y453123D01*
X631232Y451345D02*
X626491Y451345D01*
D12*
X553720Y403860D02*
X525780Y403860D01*
X553720Y383540D02*
X553820Y383542D01*
X553919Y383548D01*
X554019Y383558D01*
X554117Y383571D01*
X554216Y383589D01*
X554313Y383610D01*
X554409Y383635D01*
X554505Y383664D01*
X554599Y383697D01*
X554692Y383733D01*
X554783Y383773D01*
X554873Y383817D01*
X554961Y383864D01*
X555047Y383914D01*
X555131Y383968D01*
X555213Y384025D01*
X555292Y384085D01*
X555370Y384149D01*
X555444Y384215D01*
X555516Y384284D01*
X555585Y384356D01*
X555651Y384430D01*
X555715Y384508D01*
X555775Y384587D01*
X555832Y384669D01*
X555886Y384753D01*
X555936Y384839D01*
X555983Y384927D01*
X556027Y385017D01*
X556067Y385108D01*
X556103Y385201D01*
X556136Y385295D01*
X556165Y385391D01*
X556190Y385487D01*
X556211Y385584D01*
X556229Y385683D01*
X556242Y385781D01*
X556252Y385881D01*
X556258Y385980D01*
X556260Y386080D01*
X525780Y383540D02*
X525680Y383542D01*
X525581Y383548D01*
X525481Y383558D01*
X525383Y383571D01*
X525284Y383589D01*
X525187Y383610D01*
X525091Y383635D01*
X524995Y383664D01*
X524901Y383697D01*
X524808Y383733D01*
X524717Y383773D01*
X524627Y383817D01*
X524539Y383864D01*
X524453Y383914D01*
X524369Y383968D01*
X524287Y384025D01*
X524208Y384085D01*
X524130Y384149D01*
X524056Y384215D01*
X523984Y384284D01*
X523915Y384356D01*
X523849Y384430D01*
X523785Y384508D01*
X523725Y384587D01*
X523668Y384669D01*
X523614Y384753D01*
X523564Y384839D01*
X523517Y384927D01*
X523473Y385017D01*
X523433Y385108D01*
X523397Y385201D01*
X523364Y385295D01*
X523335Y385391D01*
X523310Y385487D01*
X523289Y385584D01*
X523271Y385683D01*
X523258Y385781D01*
X523248Y385881D01*
X523242Y385980D01*
X523240Y386080D01*
X523240Y401320D02*
X523242Y401420D01*
X523248Y401519D01*
X523258Y401619D01*
X523271Y401717D01*
X523289Y401816D01*
X523310Y401913D01*
X523335Y402009D01*
X523364Y402105D01*
X523397Y402199D01*
X523433Y402292D01*
X523473Y402383D01*
X523517Y402473D01*
X523564Y402561D01*
X523614Y402647D01*
X523668Y402731D01*
X523725Y402813D01*
X523785Y402892D01*
X523849Y402970D01*
X523915Y403044D01*
X523984Y403116D01*
X524056Y403185D01*
X524130Y403251D01*
X524208Y403315D01*
X524287Y403375D01*
X524369Y403432D01*
X524453Y403486D01*
X524539Y403536D01*
X524627Y403583D01*
X524717Y403627D01*
X524808Y403667D01*
X524901Y403703D01*
X524995Y403736D01*
X525091Y403765D01*
X525187Y403790D01*
X525284Y403811D01*
X525383Y403829D01*
X525481Y403842D01*
X525581Y403852D01*
X525680Y403858D01*
X525780Y403860D01*
X553720Y403860D02*
X553820Y403858D01*
X553919Y403852D01*
X554019Y403842D01*
X554117Y403829D01*
X554216Y403811D01*
X554313Y403790D01*
X554409Y403765D01*
X554505Y403736D01*
X554599Y403703D01*
X554692Y403667D01*
X554783Y403627D01*
X554873Y403583D01*
X554961Y403536D01*
X555047Y403486D01*
X555131Y403432D01*
X555213Y403375D01*
X555292Y403315D01*
X555370Y403251D01*
X555444Y403185D01*
X555516Y403116D01*
X555585Y403044D01*
X555651Y402970D01*
X555715Y402892D01*
X555775Y402813D01*
X555832Y402731D01*
X555886Y402647D01*
X555936Y402561D01*
X555983Y402473D01*
X556027Y402383D01*
X556067Y402292D01*
X556103Y402199D01*
X556136Y402105D01*
X556165Y402009D01*
X556190Y401913D01*
X556211Y401816D01*
X556229Y401717D01*
X556242Y401619D01*
X556252Y401519D01*
X556258Y401420D01*
X556260Y401320D01*
X556260Y386080D01*
X523240Y386080D02*
X523240Y401320D01*
X525780Y383540D02*
X553720Y383540D01*
D10*
X548047Y408686D02*
X547952Y408688D01*
X547856Y408694D01*
X547761Y408703D01*
X547667Y408717D01*
X547573Y408734D01*
X547480Y408755D01*
X547387Y408780D01*
X547296Y408808D01*
X547206Y408840D01*
X547118Y408876D01*
X547031Y408915D01*
X546945Y408958D01*
X546862Y409004D01*
X546780Y409053D01*
X546700Y409106D01*
X546623Y409162D01*
X546547Y409220D01*
X546475Y409282D01*
X546405Y409347D01*
X546337Y409415D01*
X546272Y409485D01*
X546210Y409557D01*
X546152Y409633D01*
X546096Y409710D01*
X546043Y409790D01*
X545994Y409872D01*
X545948Y409955D01*
X545905Y410041D01*
X545866Y410128D01*
X545830Y410216D01*
X545798Y410306D01*
X545770Y410397D01*
X545745Y410490D01*
X545724Y410583D01*
X545707Y410677D01*
X545693Y410771D01*
X545684Y410866D01*
X545678Y410962D01*
X545676Y411057D01*
X548047Y408686D02*
X548183Y408688D01*
X548320Y408693D01*
X548456Y408703D01*
X548591Y408716D01*
X548727Y408732D01*
X548861Y408753D01*
X548996Y408777D01*
X549129Y408804D01*
X549262Y408836D01*
X549394Y408870D01*
X549525Y408909D01*
X549654Y408951D01*
X549783Y408996D01*
X549910Y409045D01*
X550036Y409098D01*
X550160Y409154D01*
X550283Y409213D01*
X550404Y409275D01*
X550524Y409341D01*
X550641Y409410D01*
X550757Y409483D01*
X550871Y409558D01*
X550982Y409636D01*
X551091Y409718D01*
X551199Y409802D01*
X551303Y409889D01*
X551406Y409979D01*
X551506Y410072D01*
X551603Y410168D01*
X551307Y416983D02*
X551305Y417078D01*
X551299Y417174D01*
X551290Y417269D01*
X551276Y417363D01*
X551259Y417457D01*
X551238Y417550D01*
X551213Y417643D01*
X551185Y417734D01*
X551153Y417824D01*
X551117Y417912D01*
X551078Y417999D01*
X551035Y418085D01*
X550989Y418169D01*
X550940Y418250D01*
X550887Y418330D01*
X550831Y418407D01*
X550773Y418483D01*
X550711Y418555D01*
X550646Y418625D01*
X550578Y418693D01*
X550508Y418758D01*
X550436Y418820D01*
X550360Y418878D01*
X550283Y418934D01*
X550203Y418987D01*
X550122Y419036D01*
X550038Y419082D01*
X549952Y419125D01*
X549865Y419164D01*
X549777Y419200D01*
X549687Y419232D01*
X549596Y419260D01*
X549503Y419285D01*
X549410Y419306D01*
X549316Y419323D01*
X549222Y419337D01*
X549127Y419346D01*
X549031Y419352D01*
X548936Y419354D01*
X548806Y419352D01*
X548676Y419346D01*
X548546Y419337D01*
X548417Y419324D01*
X548288Y419307D01*
X548160Y419286D01*
X548032Y419261D01*
X547905Y419233D01*
X547779Y419201D01*
X547654Y419165D01*
X547530Y419126D01*
X547408Y419083D01*
X547286Y419037D01*
X547166Y418986D01*
X547048Y418933D01*
X546931Y418876D01*
X546816Y418816D01*
X546702Y418752D01*
X546591Y418685D01*
X546481Y418615D01*
X546374Y418541D01*
X546269Y418465D01*
X550122Y414908D02*
X550203Y414959D01*
X550283Y415013D01*
X550361Y415069D01*
X550436Y415129D01*
X550509Y415192D01*
X550579Y415258D01*
X550646Y415326D01*
X550711Y415397D01*
X550773Y415471D01*
X550832Y415547D01*
X550888Y415625D01*
X550940Y415706D01*
X550990Y415788D01*
X551036Y415873D01*
X551078Y415959D01*
X551118Y416047D01*
X551153Y416136D01*
X551185Y416227D01*
X551214Y416319D01*
X551238Y416412D01*
X551259Y416505D01*
X551276Y416600D01*
X551290Y416695D01*
X551299Y416791D01*
X551305Y416887D01*
X551307Y416983D01*
X546862Y413132D02*
X546780Y413081D01*
X546700Y413027D01*
X546622Y412971D01*
X546547Y412911D01*
X546474Y412848D01*
X546404Y412782D01*
X546337Y412714D01*
X546272Y412643D01*
X546210Y412569D01*
X546151Y412493D01*
X546095Y412415D01*
X546043Y412334D01*
X545993Y412252D01*
X545947Y412167D01*
X545905Y412081D01*
X545865Y411993D01*
X545830Y411904D01*
X545798Y411813D01*
X545769Y411721D01*
X545745Y411628D01*
X545724Y411535D01*
X545707Y411440D01*
X545693Y411345D01*
X545684Y411249D01*
X545678Y411153D01*
X545676Y411057D01*
X546862Y413131D02*
X550122Y414909D01*
X538368Y411057D02*
X538368Y419354D01*
X538368Y411057D02*
X538370Y410962D01*
X538376Y410866D01*
X538385Y410771D01*
X538399Y410677D01*
X538416Y410583D01*
X538437Y410490D01*
X538462Y410397D01*
X538490Y410306D01*
X538522Y410216D01*
X538558Y410128D01*
X538597Y410041D01*
X538640Y409955D01*
X538686Y409872D01*
X538735Y409790D01*
X538788Y409710D01*
X538844Y409633D01*
X538902Y409557D01*
X538964Y409485D01*
X539029Y409415D01*
X539097Y409347D01*
X539167Y409282D01*
X539239Y409220D01*
X539315Y409162D01*
X539392Y409106D01*
X539472Y409053D01*
X539554Y409004D01*
X539637Y408958D01*
X539723Y408915D01*
X539810Y408876D01*
X539898Y408840D01*
X539988Y408808D01*
X540079Y408780D01*
X540172Y408755D01*
X540265Y408734D01*
X540359Y408717D01*
X540453Y408703D01*
X540548Y408694D01*
X540644Y408688D01*
X540739Y408686D01*
X541924Y408686D01*
X532553Y416983D02*
X529590Y419354D01*
X529590Y408686D01*
X532553Y408686D02*
X526627Y408686D01*
X84709Y331102D02*
X74041Y331102D01*
X84709Y331102D02*
X84709Y334065D01*
X84707Y334172D01*
X84701Y334279D01*
X84692Y334385D01*
X84678Y334491D01*
X84661Y334597D01*
X84640Y334702D01*
X84615Y334806D01*
X84586Y334909D01*
X84554Y335011D01*
X84518Y335112D01*
X84478Y335211D01*
X84435Y335309D01*
X84388Y335405D01*
X84338Y335500D01*
X84285Y335593D01*
X84228Y335683D01*
X84168Y335772D01*
X84105Y335858D01*
X84039Y335942D01*
X83969Y336024D01*
X83897Y336103D01*
X83822Y336179D01*
X83744Y336253D01*
X83664Y336323D01*
X83581Y336391D01*
X83496Y336456D01*
X83409Y336517D01*
X83319Y336576D01*
X83228Y336631D01*
X83134Y336683D01*
X83038Y336731D01*
X82941Y336776D01*
X82843Y336818D01*
X82743Y336855D01*
X82641Y336890D01*
X82539Y336920D01*
X82435Y336947D01*
X82331Y336970D01*
X82225Y336989D01*
X82119Y337004D01*
X82013Y337016D01*
X81906Y337024D01*
X81799Y337028D01*
X81693Y337028D01*
X81586Y337024D01*
X81479Y337016D01*
X81373Y337004D01*
X81267Y336989D01*
X81161Y336970D01*
X81057Y336947D01*
X80953Y336920D01*
X80851Y336890D01*
X80749Y336855D01*
X80649Y336818D01*
X80551Y336776D01*
X80454Y336731D01*
X80358Y336683D01*
X80265Y336631D01*
X80173Y336576D01*
X80083Y336517D01*
X79996Y336456D01*
X79911Y336391D01*
X79828Y336323D01*
X79748Y336253D01*
X79670Y336179D01*
X79595Y336103D01*
X79523Y336024D01*
X79453Y335942D01*
X79387Y335858D01*
X79324Y335772D01*
X79264Y335683D01*
X79207Y335593D01*
X79154Y335500D01*
X79104Y335405D01*
X79057Y335309D01*
X79014Y335211D01*
X78974Y335112D01*
X78938Y335011D01*
X78906Y334909D01*
X78877Y334806D01*
X78852Y334702D01*
X78831Y334597D01*
X78814Y334491D01*
X78800Y334385D01*
X78791Y334279D01*
X78785Y334172D01*
X78783Y334065D01*
X78782Y334065D02*
X78782Y331102D01*
X78782Y334658D02*
X74041Y337029D01*
X82338Y342421D02*
X84709Y345385D01*
X74041Y345385D01*
X74041Y348348D02*
X74041Y342421D01*
D12*
X151892Y332740D02*
X151892Y289560D01*
X187198Y285750D02*
X187320Y285752D01*
X187442Y285758D01*
X187564Y285768D01*
X187685Y285781D01*
X187806Y285799D01*
X187926Y285820D01*
X188046Y285846D01*
X188164Y285875D01*
X188282Y285907D01*
X188399Y285944D01*
X188514Y285984D01*
X188628Y286028D01*
X188740Y286076D01*
X188851Y286127D01*
X188960Y286182D01*
X189068Y286240D01*
X189173Y286302D01*
X189276Y286367D01*
X189378Y286435D01*
X189477Y286507D01*
X189573Y286581D01*
X189668Y286659D01*
X189759Y286740D01*
X189849Y286823D01*
X189935Y286909D01*
X190018Y286999D01*
X190099Y287090D01*
X190177Y287185D01*
X190251Y287281D01*
X190323Y287380D01*
X190391Y287482D01*
X190456Y287585D01*
X190518Y287690D01*
X190576Y287798D01*
X190631Y287907D01*
X190682Y288018D01*
X190730Y288130D01*
X190774Y288244D01*
X190814Y288359D01*
X190851Y288476D01*
X190883Y288594D01*
X190912Y288712D01*
X190938Y288832D01*
X190959Y288952D01*
X190977Y289073D01*
X190990Y289194D01*
X191000Y289316D01*
X191006Y289438D01*
X191008Y289560D01*
X151892Y332740D02*
X151894Y332862D01*
X151900Y332984D01*
X151910Y333106D01*
X151923Y333227D01*
X151941Y333348D01*
X151962Y333468D01*
X151988Y333588D01*
X152017Y333706D01*
X152049Y333824D01*
X152086Y333941D01*
X152126Y334056D01*
X152170Y334170D01*
X152218Y334282D01*
X152269Y334393D01*
X152324Y334502D01*
X152382Y334610D01*
X152444Y334715D01*
X152509Y334818D01*
X152577Y334920D01*
X152649Y335019D01*
X152723Y335115D01*
X152801Y335210D01*
X152882Y335301D01*
X152965Y335391D01*
X153051Y335477D01*
X153141Y335560D01*
X153232Y335641D01*
X153327Y335719D01*
X153423Y335793D01*
X153522Y335865D01*
X153624Y335933D01*
X153727Y335998D01*
X153832Y336060D01*
X153940Y336118D01*
X154049Y336173D01*
X154160Y336224D01*
X154272Y336272D01*
X154386Y336316D01*
X154501Y336356D01*
X154618Y336393D01*
X154736Y336425D01*
X154854Y336454D01*
X154974Y336480D01*
X155094Y336501D01*
X155215Y336519D01*
X155336Y336532D01*
X155458Y336542D01*
X155580Y336548D01*
X155702Y336550D01*
X151892Y289560D02*
X151894Y289438D01*
X151900Y289316D01*
X151910Y289194D01*
X151923Y289073D01*
X151941Y288952D01*
X151962Y288832D01*
X151988Y288712D01*
X152017Y288594D01*
X152049Y288476D01*
X152086Y288359D01*
X152126Y288244D01*
X152170Y288130D01*
X152218Y288018D01*
X152269Y287907D01*
X152324Y287798D01*
X152382Y287690D01*
X152444Y287585D01*
X152509Y287482D01*
X152577Y287380D01*
X152649Y287281D01*
X152723Y287185D01*
X152801Y287090D01*
X152882Y286999D01*
X152965Y286909D01*
X153051Y286823D01*
X153141Y286740D01*
X153232Y286659D01*
X153327Y286581D01*
X153423Y286507D01*
X153522Y286435D01*
X153624Y286367D01*
X153727Y286302D01*
X153832Y286240D01*
X153940Y286182D01*
X154049Y286127D01*
X154160Y286076D01*
X154272Y286028D01*
X154386Y285984D01*
X154501Y285944D01*
X154618Y285907D01*
X154736Y285875D01*
X154854Y285846D01*
X154974Y285820D01*
X155094Y285799D01*
X155215Y285781D01*
X155336Y285768D01*
X155458Y285758D01*
X155580Y285752D01*
X155702Y285750D01*
X191008Y332740D02*
X191006Y332862D01*
X191000Y332984D01*
X190990Y333106D01*
X190977Y333227D01*
X190959Y333348D01*
X190938Y333468D01*
X190912Y333588D01*
X190883Y333706D01*
X190851Y333824D01*
X190814Y333941D01*
X190774Y334056D01*
X190730Y334170D01*
X190682Y334282D01*
X190631Y334393D01*
X190576Y334502D01*
X190518Y334610D01*
X190456Y334715D01*
X190391Y334818D01*
X190323Y334920D01*
X190251Y335019D01*
X190177Y335115D01*
X190099Y335210D01*
X190018Y335301D01*
X189935Y335391D01*
X189849Y335477D01*
X189759Y335560D01*
X189668Y335641D01*
X189573Y335719D01*
X189477Y335793D01*
X189378Y335865D01*
X189276Y335933D01*
X189173Y335998D01*
X189068Y336060D01*
X188960Y336118D01*
X188851Y336173D01*
X188740Y336224D01*
X188628Y336272D01*
X188514Y336316D01*
X188399Y336356D01*
X188282Y336393D01*
X188164Y336425D01*
X188046Y336454D01*
X187926Y336480D01*
X187806Y336501D01*
X187685Y336519D01*
X187564Y336532D01*
X187442Y336542D01*
X187320Y336548D01*
X187198Y336550D01*
X191008Y332740D02*
X191008Y289560D01*
X187198Y285750D02*
X155702Y285750D01*
X155702Y336550D02*
X187198Y336550D01*
X176530Y336550D02*
X176528Y336409D01*
X176522Y336268D01*
X176512Y336127D01*
X176499Y335986D01*
X176481Y335846D01*
X176459Y335707D01*
X176434Y335568D01*
X176405Y335429D01*
X176372Y335292D01*
X176335Y335156D01*
X176294Y335021D01*
X176250Y334886D01*
X176202Y334754D01*
X176150Y334622D01*
X176095Y334492D01*
X176036Y334364D01*
X175973Y334237D01*
X175907Y334113D01*
X175838Y333990D01*
X175765Y333869D01*
X175689Y333750D01*
X175609Y333633D01*
X175526Y333519D01*
X175441Y333406D01*
X175352Y333297D01*
X175260Y333189D01*
X175165Y333085D01*
X175067Y332983D01*
X174966Y332884D01*
X174863Y332787D01*
X174757Y332694D01*
X174649Y332604D01*
X174538Y332516D01*
X174425Y332432D01*
X174309Y332351D01*
X174191Y332273D01*
X174071Y332198D01*
X173949Y332127D01*
X173825Y332059D01*
X173699Y331995D01*
X173572Y331934D01*
X173443Y331877D01*
X173312Y331824D01*
X173180Y331774D01*
X173047Y331727D01*
X172912Y331685D01*
X172776Y331646D01*
X172639Y331611D01*
X172502Y331580D01*
X172363Y331553D01*
X172224Y331529D01*
X172084Y331510D01*
X171944Y331494D01*
X171803Y331482D01*
X171662Y331474D01*
X171521Y331470D01*
X171379Y331470D01*
X171238Y331474D01*
X171097Y331482D01*
X170956Y331494D01*
X170816Y331510D01*
X170676Y331529D01*
X170537Y331553D01*
X170398Y331580D01*
X170261Y331611D01*
X170124Y331646D01*
X169988Y331685D01*
X169853Y331727D01*
X169720Y331774D01*
X169588Y331824D01*
X169457Y331877D01*
X169328Y331934D01*
X169201Y331995D01*
X169075Y332059D01*
X168951Y332127D01*
X168829Y332198D01*
X168709Y332273D01*
X168591Y332351D01*
X168475Y332432D01*
X168362Y332516D01*
X168251Y332604D01*
X168143Y332694D01*
X168037Y332787D01*
X167934Y332884D01*
X167833Y332983D01*
X167735Y333085D01*
X167640Y333189D01*
X167548Y333297D01*
X167459Y333406D01*
X167374Y333519D01*
X167291Y333633D01*
X167211Y333750D01*
X167135Y333869D01*
X167062Y333990D01*
X166993Y334113D01*
X166927Y334237D01*
X166864Y334364D01*
X166805Y334492D01*
X166750Y334622D01*
X166698Y334754D01*
X166650Y334886D01*
X166606Y335021D01*
X166565Y335156D01*
X166528Y335292D01*
X166495Y335429D01*
X166466Y335568D01*
X166441Y335707D01*
X166419Y335846D01*
X166401Y335986D01*
X166388Y336127D01*
X166378Y336268D01*
X166372Y336409D01*
X166370Y336550D01*
D13*
X187452Y336550D02*
X187452Y285750D01*
D10*
X180319Y344339D02*
X180319Y352044D01*
X180318Y344339D02*
X180316Y344232D01*
X180310Y344125D01*
X180301Y344019D01*
X180287Y343913D01*
X180270Y343807D01*
X180249Y343702D01*
X180224Y343598D01*
X180195Y343495D01*
X180163Y343393D01*
X180127Y343292D01*
X180087Y343193D01*
X180044Y343095D01*
X179997Y342999D01*
X179947Y342904D01*
X179894Y342811D01*
X179837Y342721D01*
X179777Y342632D01*
X179714Y342546D01*
X179648Y342462D01*
X179578Y342380D01*
X179506Y342301D01*
X179431Y342225D01*
X179353Y342151D01*
X179273Y342081D01*
X179190Y342013D01*
X179105Y341948D01*
X179018Y341887D01*
X178928Y341828D01*
X178836Y341773D01*
X178743Y341721D01*
X178647Y341673D01*
X178550Y341628D01*
X178452Y341586D01*
X178352Y341549D01*
X178250Y341514D01*
X178148Y341484D01*
X178044Y341457D01*
X177940Y341434D01*
X177834Y341415D01*
X177728Y341400D01*
X177622Y341388D01*
X177515Y341380D01*
X177408Y341376D01*
X177302Y341376D01*
X177195Y341380D01*
X177088Y341388D01*
X176982Y341400D01*
X176876Y341415D01*
X176770Y341434D01*
X176666Y341457D01*
X176562Y341484D01*
X176460Y341514D01*
X176358Y341549D01*
X176258Y341586D01*
X176160Y341628D01*
X176063Y341673D01*
X175967Y341721D01*
X175874Y341773D01*
X175782Y341828D01*
X175692Y341887D01*
X175605Y341948D01*
X175520Y342013D01*
X175437Y342081D01*
X175357Y342151D01*
X175279Y342225D01*
X175204Y342301D01*
X175132Y342380D01*
X175062Y342462D01*
X174996Y342546D01*
X174933Y342632D01*
X174873Y342721D01*
X174816Y342811D01*
X174763Y342904D01*
X174713Y342999D01*
X174666Y343095D01*
X174623Y343193D01*
X174583Y343292D01*
X174547Y343393D01*
X174515Y343495D01*
X174486Y343598D01*
X174461Y343702D01*
X174440Y343807D01*
X174423Y343913D01*
X174409Y344019D01*
X174400Y344125D01*
X174394Y344232D01*
X174392Y344339D01*
X174392Y352044D01*
X165248Y352044D02*
X165146Y352042D01*
X165044Y352036D01*
X164942Y352026D01*
X164841Y352013D01*
X164740Y351995D01*
X164640Y351974D01*
X164541Y351949D01*
X164443Y351920D01*
X164346Y351887D01*
X164251Y351851D01*
X164157Y351811D01*
X164065Y351767D01*
X163974Y351720D01*
X163885Y351669D01*
X163798Y351616D01*
X163714Y351558D01*
X163631Y351498D01*
X163551Y351435D01*
X163474Y351368D01*
X163399Y351299D01*
X163326Y351226D01*
X163257Y351151D01*
X163190Y351074D01*
X163127Y350994D01*
X163067Y350911D01*
X163009Y350827D01*
X162956Y350740D01*
X162905Y350651D01*
X162858Y350560D01*
X162814Y350468D01*
X162774Y350374D01*
X162738Y350278D01*
X162705Y350182D01*
X162676Y350084D01*
X162651Y349985D01*
X162630Y349885D01*
X162612Y349784D01*
X162599Y349683D01*
X162589Y349581D01*
X162583Y349479D01*
X162581Y349377D01*
X165248Y352044D02*
X165364Y352042D01*
X165481Y352036D01*
X165597Y352026D01*
X165712Y352012D01*
X165827Y351995D01*
X165942Y351973D01*
X166055Y351947D01*
X166168Y351918D01*
X166280Y351885D01*
X166390Y351848D01*
X166499Y351807D01*
X166607Y351763D01*
X166713Y351715D01*
X166817Y351663D01*
X166920Y351608D01*
X167021Y351550D01*
X167119Y351488D01*
X167216Y351423D01*
X167310Y351354D01*
X167402Y351282D01*
X167491Y351208D01*
X167578Y351130D01*
X167662Y351049D01*
X167743Y350966D01*
X167821Y350880D01*
X167897Y350791D01*
X167969Y350700D01*
X168038Y350606D01*
X168104Y350510D01*
X168167Y350412D01*
X168226Y350312D01*
X168282Y350210D01*
X168334Y350106D01*
X168383Y350000D01*
X168428Y349892D01*
X168470Y349784D01*
X168507Y349673D01*
X163470Y347302D02*
X163395Y347376D01*
X163323Y347453D01*
X163254Y347533D01*
X163187Y347615D01*
X163124Y347699D01*
X163064Y347786D01*
X163007Y347874D01*
X162953Y347965D01*
X162903Y348058D01*
X162856Y348152D01*
X162813Y348248D01*
X162773Y348346D01*
X162737Y348445D01*
X162704Y348545D01*
X162676Y348647D01*
X162651Y348749D01*
X162629Y348853D01*
X162612Y348957D01*
X162598Y349061D01*
X162589Y349166D01*
X162583Y349272D01*
X162581Y349377D01*
X163470Y347303D02*
X168508Y341376D01*
X162581Y341376D01*
M02*
