G04 EAGLE Gerber X2 export*
%TF.Part,Single*%
%TF.FileFunction,Soldermask,Top,1*%
%TF.FilePolarity,Negative*%
%TF.GenerationSoftware,Autodesk,EAGLE,9.1.0*%
%TF.CreationDate,2018-10-24T11:49:30Z*%
G75*
%MOMM*%
%FSLAX34Y34*%
%LPD*%
%AMOC8*
5,1,8,0,0,1.08239X$1,22.5*%
G01*
%ADD10C,0.350222*%
%ADD11C,1.090159*%
%ADD12C,0.210309*%
%ADD13R,1.625600X1.625600*%
%ADD14P,1.759533X8X202.500000*%
%ADD15C,0.474191*%
%ADD16C,3.101600*%
%ADD17R,1.879600X1.879600*%
%ADD18C,1.879600*%
%ADD19C,6.400000*%
%ADD20C,2.101600*%
%ADD21C,0.256253*%
%ADD22C,0.238272*%
%ADD23R,1.509600X1.509600*%
%ADD24P,1.633976X8X292.500000*%
%ADD25C,0.204544*%
%ADD26C,0.203200*%
%ADD27P,1.633976X8X22.500000*%
%ADD28C,0.364222*%
%ADD29C,1.609600*%
%ADD30P,1.759533X8X112.500000*%


D10*
X287693Y274768D02*
X287693Y296282D01*
X309207Y296282D01*
X309207Y274768D01*
X287693Y274768D01*
X287693Y278095D02*
X309207Y278095D01*
X309207Y281422D02*
X287693Y281422D01*
X287693Y284749D02*
X309207Y284749D01*
X309207Y288076D02*
X287693Y288076D01*
X287693Y291403D02*
X309207Y291403D01*
X309207Y294730D02*
X287693Y294730D01*
X287693Y252282D02*
X287693Y230768D01*
X287693Y252282D02*
X309207Y252282D01*
X309207Y230768D01*
X287693Y230768D01*
X287693Y234095D02*
X309207Y234095D01*
X309207Y237422D02*
X287693Y237422D01*
X287693Y240749D02*
X309207Y240749D01*
X309207Y244076D02*
X287693Y244076D01*
X287693Y247403D02*
X309207Y247403D01*
X309207Y250730D02*
X287693Y250730D01*
D11*
X394218Y328768D02*
X394218Y426882D01*
X501132Y426882D01*
X501132Y328768D01*
X394218Y328768D01*
X394218Y339125D02*
X501132Y339125D01*
X501132Y349482D02*
X394218Y349482D01*
X394218Y359839D02*
X501132Y359839D01*
X501132Y370196D02*
X394218Y370196D01*
X394218Y380553D02*
X501132Y380553D01*
X501132Y390910D02*
X394218Y390910D01*
X394218Y401267D02*
X501132Y401267D01*
X501132Y411624D02*
X394218Y411624D01*
X394218Y421981D02*
X501132Y421981D01*
D12*
X347761Y416652D02*
X347761Y407070D01*
X347761Y416652D02*
X368265Y416652D01*
X368265Y407070D01*
X347761Y407070D01*
X347761Y409068D02*
X368265Y409068D01*
X368265Y411066D02*
X347761Y411066D01*
X347761Y413064D02*
X368265Y413064D01*
X368265Y415062D02*
X347761Y415062D01*
X347761Y399634D02*
X347761Y390052D01*
X347761Y399634D02*
X368265Y399634D01*
X368265Y390052D01*
X347761Y390052D01*
X347761Y392050D02*
X368265Y392050D01*
X368265Y394048D02*
X347761Y394048D01*
X347761Y396046D02*
X368265Y396046D01*
X368265Y398044D02*
X347761Y398044D01*
X347761Y382616D02*
X347761Y373034D01*
X347761Y382616D02*
X368265Y382616D01*
X368265Y373034D01*
X347761Y373034D01*
X347761Y375032D02*
X368265Y375032D01*
X368265Y377030D02*
X347761Y377030D01*
X347761Y379028D02*
X368265Y379028D01*
X368265Y381026D02*
X347761Y381026D01*
X347761Y365598D02*
X347761Y356016D01*
X347761Y365598D02*
X368265Y365598D01*
X368265Y356016D01*
X347761Y356016D01*
X347761Y358014D02*
X368265Y358014D01*
X368265Y360012D02*
X347761Y360012D01*
X347761Y362010D02*
X368265Y362010D01*
X368265Y364008D02*
X347761Y364008D01*
X347761Y348580D02*
X347761Y338998D01*
X347761Y348580D02*
X368265Y348580D01*
X368265Y338998D01*
X347761Y338998D01*
X347761Y340996D02*
X368265Y340996D01*
X368265Y342994D02*
X347761Y342994D01*
X347761Y344992D02*
X368265Y344992D01*
X368265Y346990D02*
X347761Y346990D01*
D13*
X628015Y125095D03*
D14*
X602615Y125095D03*
X577215Y125095D03*
X551815Y125095D03*
D15*
X151787Y209313D02*
X117013Y209313D01*
X117013Y260587D01*
X151787Y260587D01*
X151787Y209313D01*
X151787Y213818D02*
X117013Y213818D01*
X117013Y218323D02*
X151787Y218323D01*
X151787Y222828D02*
X117013Y222828D01*
X117013Y227333D02*
X151787Y227333D01*
X151787Y231838D02*
X117013Y231838D01*
X117013Y236343D02*
X151787Y236343D01*
X151787Y240848D02*
X117013Y240848D01*
X117013Y245353D02*
X151787Y245353D01*
X151787Y249858D02*
X117013Y249858D01*
X117013Y254363D02*
X151787Y254363D01*
X151787Y258868D02*
X117013Y258868D01*
X216513Y209313D02*
X251287Y209313D01*
X216513Y209313D02*
X216513Y260587D01*
X251287Y260587D01*
X251287Y209313D01*
X251287Y213818D02*
X216513Y213818D01*
X216513Y218323D02*
X251287Y218323D01*
X251287Y222828D02*
X216513Y222828D01*
X216513Y227333D02*
X251287Y227333D01*
X251287Y231838D02*
X216513Y231838D01*
X216513Y236343D02*
X251287Y236343D01*
X251287Y240848D02*
X216513Y240848D01*
X216513Y245353D02*
X251287Y245353D01*
X251287Y249858D02*
X216513Y249858D01*
X216513Y254363D02*
X251287Y254363D01*
X251287Y258868D02*
X216513Y258868D01*
D16*
X35000Y35000D03*
X615000Y35000D03*
X615000Y525000D03*
D17*
X83700Y512300D03*
D18*
X83700Y537700D03*
X109100Y512300D03*
X109100Y537700D03*
X134500Y512300D03*
X134500Y537700D03*
X159900Y512300D03*
X159900Y537700D03*
X185300Y512300D03*
X185300Y537700D03*
X210700Y512300D03*
X210700Y537700D03*
X236100Y512300D03*
X236100Y537700D03*
X261500Y512300D03*
X261500Y537700D03*
X286900Y512300D03*
X286900Y537700D03*
X312300Y512300D03*
X312300Y537700D03*
X337700Y512300D03*
X337700Y537700D03*
X363100Y512300D03*
X363100Y537700D03*
X388500Y512300D03*
X388500Y537700D03*
X413900Y512300D03*
X413900Y537700D03*
X439300Y512300D03*
X439300Y537700D03*
X464700Y512300D03*
X464700Y537700D03*
X490100Y512300D03*
X490100Y537700D03*
X515500Y512300D03*
X515500Y537700D03*
X540900Y512300D03*
X540900Y537700D03*
X566300Y512300D03*
X566300Y537700D03*
D19*
X615000Y525000D03*
X35000Y35000D03*
X615000Y35000D03*
D20*
X44200Y228389D03*
X44200Y279189D03*
D12*
X368971Y281234D02*
X389729Y281234D01*
X368971Y281234D02*
X368971Y290816D01*
X389729Y290816D01*
X389729Y281234D01*
X389729Y283232D02*
X368971Y283232D01*
X368971Y285230D02*
X389729Y285230D01*
X389729Y287228D02*
X368971Y287228D01*
X368971Y289226D02*
X389729Y289226D01*
X511971Y281234D02*
X532729Y281234D01*
X511971Y281234D02*
X511971Y290816D01*
X532729Y290816D01*
X532729Y281234D01*
X532729Y283232D02*
X511971Y283232D01*
X511971Y285230D02*
X532729Y285230D01*
X532729Y287228D02*
X511971Y287228D01*
X511971Y289226D02*
X532729Y289226D01*
X389729Y229884D02*
X368971Y229884D01*
X368971Y239466D01*
X389729Y239466D01*
X389729Y229884D01*
X389729Y231882D02*
X368971Y231882D01*
X368971Y233880D02*
X389729Y233880D01*
X389729Y235878D02*
X368971Y235878D01*
X368971Y237876D02*
X389729Y237876D01*
X511971Y229884D02*
X532729Y229884D01*
X511971Y229884D02*
X511971Y239466D01*
X532729Y239466D01*
X532729Y229884D01*
X532729Y231882D02*
X511971Y231882D01*
X511971Y233880D02*
X532729Y233880D01*
X532729Y235878D02*
X511971Y235878D01*
X511971Y237876D02*
X532729Y237876D01*
D21*
X552073Y395627D02*
X565527Y395627D01*
X565527Y382173D01*
X552073Y382173D01*
X552073Y395627D01*
X552073Y384608D02*
X565527Y384608D01*
X565527Y387043D02*
X552073Y387043D01*
X552073Y389478D02*
X565527Y389478D01*
X565527Y391913D02*
X552073Y391913D01*
X552073Y394348D02*
X565527Y394348D01*
X565527Y430627D02*
X552073Y430627D01*
X565527Y430627D02*
X565527Y417173D01*
X552073Y417173D01*
X552073Y430627D01*
X552073Y419608D02*
X565527Y419608D01*
X565527Y422043D02*
X552073Y422043D01*
X552073Y424478D02*
X565527Y424478D01*
X565527Y426913D02*
X552073Y426913D01*
X552073Y429348D02*
X565527Y429348D01*
D22*
X581583Y418633D02*
X593217Y418633D01*
X581583Y418633D02*
X581583Y432267D01*
X593217Y432267D01*
X593217Y418633D01*
X593217Y420897D02*
X581583Y420897D01*
X581583Y423161D02*
X593217Y423161D01*
X593217Y425425D02*
X581583Y425425D01*
X581583Y427689D02*
X593217Y427689D01*
X593217Y429953D02*
X581583Y429953D01*
X581583Y432217D02*
X593217Y432217D01*
X600583Y418633D02*
X612217Y418633D01*
X600583Y418633D02*
X600583Y432267D01*
X612217Y432267D01*
X612217Y418633D01*
X612217Y420897D02*
X600583Y420897D01*
X600583Y423161D02*
X612217Y423161D01*
X612217Y425425D02*
X600583Y425425D01*
X600583Y427689D02*
X612217Y427689D01*
X612217Y429953D02*
X600583Y429953D01*
X600583Y432217D02*
X612217Y432217D01*
X555067Y327492D02*
X543433Y327492D01*
X555067Y327492D02*
X555067Y313858D01*
X543433Y313858D01*
X543433Y327492D01*
X543433Y316122D02*
X555067Y316122D01*
X555067Y318386D02*
X543433Y318386D01*
X543433Y320650D02*
X555067Y320650D01*
X555067Y322914D02*
X543433Y322914D01*
X543433Y325178D02*
X555067Y325178D01*
X555067Y327442D02*
X543433Y327442D01*
X536067Y327492D02*
X524433Y327492D01*
X536067Y327492D02*
X536067Y313858D01*
X524433Y313858D01*
X524433Y327492D01*
X524433Y316122D02*
X536067Y316122D01*
X536067Y318386D02*
X524433Y318386D01*
X524433Y320650D02*
X536067Y320650D01*
X536067Y322914D02*
X524433Y322914D01*
X524433Y325178D02*
X536067Y325178D01*
X536067Y327442D02*
X524433Y327442D01*
D20*
X44200Y126789D03*
X44200Y177589D03*
D23*
X101600Y69850D03*
D24*
X101600Y44450D03*
X101600Y19050D03*
D23*
X127000Y69850D03*
D24*
X127000Y44450D03*
X127000Y19050D03*
D23*
X152400Y69850D03*
D24*
X152400Y44450D03*
X152400Y19050D03*
D23*
X177800Y69850D03*
D24*
X177800Y44450D03*
X177800Y19050D03*
D23*
X215900Y69850D03*
D24*
X215900Y44450D03*
X215900Y19050D03*
D23*
X241300Y69850D03*
D24*
X241300Y44450D03*
X241300Y19050D03*
D23*
X266700Y69850D03*
D24*
X266700Y44450D03*
X266700Y19050D03*
D23*
X292100Y69850D03*
D24*
X292100Y44450D03*
X292100Y19050D03*
D23*
X330200Y69850D03*
D24*
X330200Y44450D03*
X330200Y19050D03*
D23*
X355600Y69850D03*
D24*
X355600Y44450D03*
X355600Y19050D03*
D23*
X381000Y69850D03*
D24*
X381000Y44450D03*
X381000Y19050D03*
D23*
X406400Y69850D03*
D24*
X406400Y44450D03*
X406400Y19050D03*
D23*
X476250Y69850D03*
D24*
X476250Y44450D03*
X476250Y19050D03*
D23*
X501650Y69850D03*
D24*
X501650Y44450D03*
X501650Y19050D03*
D23*
X527050Y69850D03*
D24*
X527050Y44450D03*
X527050Y19050D03*
D23*
X552450Y69850D03*
D24*
X552450Y44450D03*
X552450Y19050D03*
D25*
X179086Y126461D02*
X175114Y126461D01*
X179086Y126461D02*
X179086Y117815D01*
X175114Y117815D01*
X175114Y126461D01*
X175114Y119758D02*
X179086Y119758D01*
X179086Y121701D02*
X175114Y121701D01*
X175114Y123644D02*
X179086Y123644D01*
X179086Y125587D02*
X175114Y125587D01*
X171086Y126461D02*
X167114Y126461D01*
X171086Y126461D02*
X171086Y117815D01*
X167114Y117815D01*
X167114Y126461D01*
X167114Y119758D02*
X171086Y119758D01*
X171086Y121701D02*
X167114Y121701D01*
X167114Y123644D02*
X171086Y123644D01*
X171086Y125587D02*
X167114Y125587D01*
X163086Y126461D02*
X159114Y126461D01*
X163086Y126461D02*
X163086Y117815D01*
X159114Y117815D01*
X159114Y126461D01*
X159114Y119758D02*
X163086Y119758D01*
X163086Y121701D02*
X159114Y121701D01*
X159114Y123644D02*
X163086Y123644D01*
X163086Y125587D02*
X159114Y125587D01*
X155086Y126461D02*
X151114Y126461D01*
X155086Y126461D02*
X155086Y117815D01*
X151114Y117815D01*
X151114Y126461D01*
X151114Y119758D02*
X155086Y119758D01*
X155086Y121701D02*
X151114Y121701D01*
X151114Y123644D02*
X155086Y123644D01*
X155086Y125587D02*
X151114Y125587D01*
X151114Y110786D02*
X155086Y110786D01*
X155086Y102140D01*
X151114Y102140D01*
X151114Y110786D01*
X151114Y104083D02*
X155086Y104083D01*
X155086Y106026D02*
X151114Y106026D01*
X151114Y107969D02*
X155086Y107969D01*
X155086Y109912D02*
X151114Y109912D01*
X159114Y110786D02*
X163086Y110786D01*
X163086Y102140D01*
X159114Y102140D01*
X159114Y110786D01*
X159114Y104083D02*
X163086Y104083D01*
X163086Y106026D02*
X159114Y106026D01*
X159114Y107969D02*
X163086Y107969D01*
X163086Y109912D02*
X159114Y109912D01*
X167114Y110786D02*
X171086Y110786D01*
X171086Y102140D01*
X167114Y102140D01*
X167114Y110786D01*
X167114Y104083D02*
X171086Y104083D01*
X171086Y106026D02*
X167114Y106026D01*
X167114Y107969D02*
X171086Y107969D01*
X171086Y109912D02*
X167114Y109912D01*
X175114Y110786D02*
X179086Y110786D01*
X179086Y102140D01*
X175114Y102140D01*
X175114Y110786D01*
X175114Y104083D02*
X179086Y104083D01*
X179086Y106026D02*
X175114Y106026D01*
X175114Y107969D02*
X179086Y107969D01*
X179086Y109912D02*
X175114Y109912D01*
X238614Y126461D02*
X242586Y126461D01*
X242586Y117815D01*
X238614Y117815D01*
X238614Y126461D01*
X238614Y119758D02*
X242586Y119758D01*
X242586Y121701D02*
X238614Y121701D01*
X238614Y123644D02*
X242586Y123644D01*
X242586Y125587D02*
X238614Y125587D01*
X234586Y126461D02*
X230614Y126461D01*
X234586Y126461D02*
X234586Y117815D01*
X230614Y117815D01*
X230614Y126461D01*
X230614Y119758D02*
X234586Y119758D01*
X234586Y121701D02*
X230614Y121701D01*
X230614Y123644D02*
X234586Y123644D01*
X234586Y125587D02*
X230614Y125587D01*
X226586Y126461D02*
X222614Y126461D01*
X226586Y126461D02*
X226586Y117815D01*
X222614Y117815D01*
X222614Y126461D01*
X222614Y119758D02*
X226586Y119758D01*
X226586Y121701D02*
X222614Y121701D01*
X222614Y123644D02*
X226586Y123644D01*
X226586Y125587D02*
X222614Y125587D01*
X218586Y126461D02*
X214614Y126461D01*
X218586Y126461D02*
X218586Y117815D01*
X214614Y117815D01*
X214614Y126461D01*
X214614Y119758D02*
X218586Y119758D01*
X218586Y121701D02*
X214614Y121701D01*
X214614Y123644D02*
X218586Y123644D01*
X218586Y125587D02*
X214614Y125587D01*
X214614Y110786D02*
X218586Y110786D01*
X218586Y102140D01*
X214614Y102140D01*
X214614Y110786D01*
X214614Y104083D02*
X218586Y104083D01*
X218586Y106026D02*
X214614Y106026D01*
X214614Y107969D02*
X218586Y107969D01*
X218586Y109912D02*
X214614Y109912D01*
X222614Y110786D02*
X226586Y110786D01*
X226586Y102140D01*
X222614Y102140D01*
X222614Y110786D01*
X222614Y104083D02*
X226586Y104083D01*
X226586Y106026D02*
X222614Y106026D01*
X222614Y107969D02*
X226586Y107969D01*
X226586Y109912D02*
X222614Y109912D01*
X230614Y110786D02*
X234586Y110786D01*
X234586Y102140D01*
X230614Y102140D01*
X230614Y110786D01*
X230614Y104083D02*
X234586Y104083D01*
X234586Y106026D02*
X230614Y106026D01*
X230614Y107969D02*
X234586Y107969D01*
X234586Y109912D02*
X230614Y109912D01*
X238614Y110786D02*
X242586Y110786D01*
X242586Y102140D01*
X238614Y102140D01*
X238614Y110786D01*
X238614Y104083D02*
X242586Y104083D01*
X242586Y106026D02*
X238614Y106026D01*
X238614Y107969D02*
X242586Y107969D01*
X242586Y109912D02*
X238614Y109912D01*
X378314Y126461D02*
X382286Y126461D01*
X382286Y117815D01*
X378314Y117815D01*
X378314Y126461D01*
X378314Y119758D02*
X382286Y119758D01*
X382286Y121701D02*
X378314Y121701D01*
X378314Y123644D02*
X382286Y123644D01*
X382286Y125587D02*
X378314Y125587D01*
X374286Y126461D02*
X370314Y126461D01*
X374286Y126461D02*
X374286Y117815D01*
X370314Y117815D01*
X370314Y126461D01*
X370314Y119758D02*
X374286Y119758D01*
X374286Y121701D02*
X370314Y121701D01*
X370314Y123644D02*
X374286Y123644D01*
X374286Y125587D02*
X370314Y125587D01*
X366286Y126461D02*
X362314Y126461D01*
X366286Y126461D02*
X366286Y117815D01*
X362314Y117815D01*
X362314Y126461D01*
X362314Y119758D02*
X366286Y119758D01*
X366286Y121701D02*
X362314Y121701D01*
X362314Y123644D02*
X366286Y123644D01*
X366286Y125587D02*
X362314Y125587D01*
X358286Y126461D02*
X354314Y126461D01*
X358286Y126461D02*
X358286Y117815D01*
X354314Y117815D01*
X354314Y126461D01*
X354314Y119758D02*
X358286Y119758D01*
X358286Y121701D02*
X354314Y121701D01*
X354314Y123644D02*
X358286Y123644D01*
X358286Y125587D02*
X354314Y125587D01*
X354314Y110786D02*
X358286Y110786D01*
X358286Y102140D01*
X354314Y102140D01*
X354314Y110786D01*
X354314Y104083D02*
X358286Y104083D01*
X358286Y106026D02*
X354314Y106026D01*
X354314Y107969D02*
X358286Y107969D01*
X358286Y109912D02*
X354314Y109912D01*
X362314Y110786D02*
X366286Y110786D01*
X366286Y102140D01*
X362314Y102140D01*
X362314Y110786D01*
X362314Y104083D02*
X366286Y104083D01*
X366286Y106026D02*
X362314Y106026D01*
X362314Y107969D02*
X366286Y107969D01*
X366286Y109912D02*
X362314Y109912D01*
X370314Y110786D02*
X374286Y110786D01*
X374286Y102140D01*
X370314Y102140D01*
X370314Y110786D01*
X370314Y104083D02*
X374286Y104083D01*
X374286Y106026D02*
X370314Y106026D01*
X370314Y107969D02*
X374286Y107969D01*
X374286Y109912D02*
X370314Y109912D01*
X378314Y110786D02*
X382286Y110786D01*
X382286Y102140D01*
X378314Y102140D01*
X378314Y110786D01*
X378314Y104083D02*
X382286Y104083D01*
X382286Y106026D02*
X378314Y106026D01*
X378314Y107969D02*
X382286Y107969D01*
X382286Y109912D02*
X378314Y109912D01*
X492614Y126461D02*
X496586Y126461D01*
X496586Y117815D01*
X492614Y117815D01*
X492614Y126461D01*
X492614Y119758D02*
X496586Y119758D01*
X496586Y121701D02*
X492614Y121701D01*
X492614Y123644D02*
X496586Y123644D01*
X496586Y125587D02*
X492614Y125587D01*
X488586Y126461D02*
X484614Y126461D01*
X488586Y126461D02*
X488586Y117815D01*
X484614Y117815D01*
X484614Y126461D01*
X484614Y119758D02*
X488586Y119758D01*
X488586Y121701D02*
X484614Y121701D01*
X484614Y123644D02*
X488586Y123644D01*
X488586Y125587D02*
X484614Y125587D01*
X480586Y126461D02*
X476614Y126461D01*
X480586Y126461D02*
X480586Y117815D01*
X476614Y117815D01*
X476614Y126461D01*
X476614Y119758D02*
X480586Y119758D01*
X480586Y121701D02*
X476614Y121701D01*
X476614Y123644D02*
X480586Y123644D01*
X480586Y125587D02*
X476614Y125587D01*
X472586Y126461D02*
X468614Y126461D01*
X472586Y126461D02*
X472586Y117815D01*
X468614Y117815D01*
X468614Y126461D01*
X468614Y119758D02*
X472586Y119758D01*
X472586Y121701D02*
X468614Y121701D01*
X468614Y123644D02*
X472586Y123644D01*
X472586Y125587D02*
X468614Y125587D01*
X468614Y110786D02*
X472586Y110786D01*
X472586Y102140D01*
X468614Y102140D01*
X468614Y110786D01*
X468614Y104083D02*
X472586Y104083D01*
X472586Y106026D02*
X468614Y106026D01*
X468614Y107969D02*
X472586Y107969D01*
X472586Y109912D02*
X468614Y109912D01*
X476614Y110786D02*
X480586Y110786D01*
X480586Y102140D01*
X476614Y102140D01*
X476614Y110786D01*
X476614Y104083D02*
X480586Y104083D01*
X480586Y106026D02*
X476614Y106026D01*
X476614Y107969D02*
X480586Y107969D01*
X480586Y109912D02*
X476614Y109912D01*
X484614Y110786D02*
X488586Y110786D01*
X488586Y102140D01*
X484614Y102140D01*
X484614Y110786D01*
X484614Y104083D02*
X488586Y104083D01*
X488586Y106026D02*
X484614Y106026D01*
X484614Y107969D02*
X488586Y107969D01*
X488586Y109912D02*
X484614Y109912D01*
X492614Y110786D02*
X496586Y110786D01*
X496586Y102140D01*
X492614Y102140D01*
X492614Y110786D01*
X492614Y104083D02*
X496586Y104083D01*
X496586Y106026D02*
X492614Y106026D01*
X492614Y107969D02*
X496586Y107969D01*
X496586Y109912D02*
X492614Y109912D01*
D26*
X258477Y212684D02*
X258477Y214716D01*
X267367Y214716D01*
X267367Y212684D01*
X258477Y212684D01*
X258477Y214614D02*
X267367Y214614D01*
X258477Y208216D02*
X258477Y206184D01*
X258477Y208216D02*
X267367Y208216D01*
X267367Y206184D01*
X258477Y206184D01*
X258477Y208114D02*
X267367Y208114D01*
X258477Y201716D02*
X258477Y199684D01*
X258477Y201716D02*
X267367Y201716D01*
X267367Y199684D01*
X258477Y199684D01*
X258477Y201614D02*
X267367Y201614D01*
X258477Y195216D02*
X258477Y193184D01*
X258477Y195216D02*
X267367Y195216D01*
X267367Y193184D01*
X258477Y193184D01*
X258477Y195114D02*
X267367Y195114D01*
X258477Y188716D02*
X258477Y186684D01*
X258477Y188716D02*
X267367Y188716D01*
X267367Y186684D01*
X258477Y186684D01*
X258477Y188614D02*
X267367Y188614D01*
X258477Y182216D02*
X258477Y180184D01*
X258477Y182216D02*
X267367Y182216D01*
X267367Y180184D01*
X258477Y180184D01*
X258477Y182114D02*
X267367Y182114D01*
X258477Y175716D02*
X258477Y173684D01*
X258477Y175716D02*
X267367Y175716D01*
X267367Y173684D01*
X258477Y173684D01*
X258477Y175614D02*
X267367Y175614D01*
X258477Y169216D02*
X258477Y167184D01*
X258477Y169216D02*
X267367Y169216D01*
X267367Y167184D01*
X258477Y167184D01*
X258477Y169114D02*
X267367Y169114D01*
X316833Y169216D02*
X316833Y167184D01*
X316833Y169216D02*
X325723Y169216D01*
X325723Y167184D01*
X316833Y167184D01*
X316833Y169114D02*
X325723Y169114D01*
X316833Y173684D02*
X316833Y175716D01*
X325723Y175716D01*
X325723Y173684D01*
X316833Y173684D01*
X316833Y175614D02*
X325723Y175614D01*
X316833Y180184D02*
X316833Y182216D01*
X325723Y182216D01*
X325723Y180184D01*
X316833Y180184D01*
X316833Y182114D02*
X325723Y182114D01*
X316833Y186684D02*
X316833Y188716D01*
X325723Y188716D01*
X325723Y186684D01*
X316833Y186684D01*
X316833Y188614D02*
X325723Y188614D01*
X316833Y193184D02*
X316833Y195216D01*
X325723Y195216D01*
X325723Y193184D01*
X316833Y193184D01*
X316833Y195114D02*
X325723Y195114D01*
X316833Y199684D02*
X316833Y201716D01*
X325723Y201716D01*
X325723Y199684D01*
X316833Y199684D01*
X316833Y201614D02*
X325723Y201614D01*
X316833Y206184D02*
X316833Y208216D01*
X325723Y208216D01*
X325723Y206184D01*
X316833Y206184D01*
X316833Y208114D02*
X325723Y208114D01*
X316833Y212684D02*
X316833Y214716D01*
X325723Y214716D01*
X325723Y212684D01*
X316833Y212684D01*
X316833Y214614D02*
X325723Y214614D01*
X258477Y162716D02*
X258477Y160684D01*
X258477Y162716D02*
X267367Y162716D01*
X267367Y160684D01*
X258477Y160684D01*
X258477Y162614D02*
X267367Y162614D01*
X258477Y156216D02*
X258477Y154184D01*
X258477Y156216D02*
X267367Y156216D01*
X267367Y154184D01*
X258477Y154184D01*
X258477Y156114D02*
X267367Y156114D01*
X316833Y160684D02*
X316833Y162716D01*
X325723Y162716D01*
X325723Y160684D01*
X316833Y160684D01*
X316833Y162614D02*
X325723Y162614D01*
X316833Y156216D02*
X316833Y154184D01*
X316833Y156216D02*
X325723Y156216D01*
X325723Y154184D01*
X316833Y154184D01*
X316833Y156114D02*
X325723Y156114D01*
X258477Y149716D02*
X258477Y147684D01*
X258477Y149716D02*
X267367Y149716D01*
X267367Y147684D01*
X258477Y147684D01*
X258477Y149614D02*
X267367Y149614D01*
X258477Y143216D02*
X258477Y141184D01*
X258477Y143216D02*
X267367Y143216D01*
X267367Y141184D01*
X258477Y141184D01*
X258477Y143114D02*
X267367Y143114D01*
X258477Y136716D02*
X258477Y134684D01*
X258477Y136716D02*
X267367Y136716D01*
X267367Y134684D01*
X258477Y134684D01*
X258477Y136614D02*
X267367Y136614D01*
X258477Y130216D02*
X258477Y128184D01*
X258477Y130216D02*
X267367Y130216D01*
X267367Y128184D01*
X258477Y128184D01*
X258477Y130114D02*
X267367Y130114D01*
X316833Y130216D02*
X316833Y128184D01*
X316833Y130216D02*
X325723Y130216D01*
X325723Y128184D01*
X316833Y128184D01*
X316833Y130114D02*
X325723Y130114D01*
X316833Y134684D02*
X316833Y136716D01*
X325723Y136716D01*
X325723Y134684D01*
X316833Y134684D01*
X316833Y136614D02*
X325723Y136614D01*
X316833Y141184D02*
X316833Y143216D01*
X325723Y143216D01*
X325723Y141184D01*
X316833Y141184D01*
X316833Y143114D02*
X325723Y143114D01*
X316833Y147684D02*
X316833Y149716D01*
X325723Y149716D01*
X325723Y147684D01*
X316833Y147684D01*
X316833Y149614D02*
X325723Y149614D01*
D22*
X365633Y197317D02*
X377267Y197317D01*
X377267Y183683D01*
X365633Y183683D01*
X365633Y197317D01*
X365633Y185947D02*
X377267Y185947D01*
X377267Y188211D02*
X365633Y188211D01*
X365633Y190475D02*
X377267Y190475D01*
X377267Y192739D02*
X365633Y192739D01*
X365633Y195003D02*
X377267Y195003D01*
X377267Y197267D02*
X365633Y197267D01*
X358267Y197317D02*
X346633Y197317D01*
X358267Y197317D02*
X358267Y183683D01*
X346633Y183683D01*
X346633Y197317D01*
X346633Y185947D02*
X358267Y185947D01*
X358267Y188211D02*
X346633Y188211D01*
X346633Y190475D02*
X358267Y190475D01*
X358267Y192739D02*
X346633Y192739D01*
X346633Y195003D02*
X358267Y195003D01*
X358267Y197267D02*
X346633Y197267D01*
D23*
X50800Y476250D03*
D27*
X76200Y476250D03*
X101600Y476250D03*
X127000Y476250D03*
X152400Y476250D03*
X177800Y476250D03*
X203200Y476250D03*
X228600Y476250D03*
X254000Y476250D03*
X279400Y476250D03*
X304800Y476250D03*
X330200Y476250D03*
X355600Y476250D03*
X381000Y476250D03*
X406400Y476250D03*
X431800Y476250D03*
X457200Y476250D03*
X482600Y476250D03*
X508000Y476250D03*
X533400Y476250D03*
X558800Y476250D03*
X584200Y476250D03*
X609600Y476250D03*
X635000Y476250D03*
D28*
X290587Y442687D02*
X290587Y402313D01*
X268213Y402313D01*
X268213Y442687D01*
X290587Y442687D01*
X290587Y405773D02*
X268213Y405773D01*
X268213Y409233D02*
X290587Y409233D01*
X290587Y412693D02*
X268213Y412693D01*
X268213Y416153D02*
X290587Y416153D01*
X290587Y419613D02*
X268213Y419613D01*
X268213Y423073D02*
X290587Y423073D01*
X290587Y426533D02*
X268213Y426533D01*
X268213Y429993D02*
X290587Y429993D01*
X290587Y433453D02*
X268213Y433453D01*
X268213Y436913D02*
X290587Y436913D01*
X290587Y440373D02*
X268213Y440373D01*
X290587Y359687D02*
X290587Y319313D01*
X268213Y319313D01*
X268213Y359687D01*
X290587Y359687D01*
X290587Y322773D02*
X268213Y322773D01*
X268213Y326233D02*
X290587Y326233D01*
X290587Y329693D02*
X268213Y329693D01*
X268213Y333153D02*
X290587Y333153D01*
X290587Y336613D02*
X268213Y336613D01*
X268213Y340073D02*
X290587Y340073D01*
X290587Y343533D02*
X268213Y343533D01*
X268213Y346993D02*
X290587Y346993D01*
X290587Y350453D02*
X268213Y350453D01*
X268213Y353913D02*
X290587Y353913D01*
X290587Y357373D02*
X268213Y357373D01*
D29*
X419100Y104775D03*
X419100Y142875D03*
D13*
X527050Y247650D03*
D30*
X527050Y273050D03*
D28*
X176287Y402313D02*
X176287Y442687D01*
X176287Y402313D02*
X153913Y402313D01*
X153913Y442687D01*
X176287Y442687D01*
X176287Y405773D02*
X153913Y405773D01*
X153913Y409233D02*
X176287Y409233D01*
X176287Y412693D02*
X153913Y412693D01*
X153913Y416153D02*
X176287Y416153D01*
X176287Y419613D02*
X153913Y419613D01*
X153913Y423073D02*
X176287Y423073D01*
X176287Y426533D02*
X153913Y426533D01*
X153913Y429993D02*
X176287Y429993D01*
X176287Y433453D02*
X153913Y433453D01*
X153913Y436913D02*
X176287Y436913D01*
X176287Y440373D02*
X153913Y440373D01*
X176287Y359687D02*
X176287Y319313D01*
X153913Y319313D01*
X153913Y359687D01*
X176287Y359687D01*
X176287Y322773D02*
X153913Y322773D01*
X153913Y326233D02*
X176287Y326233D01*
X176287Y329693D02*
X153913Y329693D01*
X153913Y333153D02*
X176287Y333153D01*
X176287Y336613D02*
X153913Y336613D01*
X153913Y340073D02*
X176287Y340073D01*
X176287Y343533D02*
X153913Y343533D01*
X153913Y346993D02*
X176287Y346993D01*
X176287Y350453D02*
X153913Y350453D01*
X153913Y353913D02*
X176287Y353913D01*
X176287Y357373D02*
X153913Y357373D01*
D20*
X44200Y329989D03*
X44200Y380789D03*
M02*
